<svg width="800" height="800" viewBox="0 0 800 800" fill="none" xmlns="http://www.w3.org/2000/svg">
<rect width="800" height="800" rx="400" fill="#FF9934"/>
<g filter="url(#filter0_d_98_2)">
<path fill-rule="evenodd" clip-rule="evenodd" d="M358.346 176.467C286.82 181.07 222.406 218.918 183.263 279.344C166.117 305.811 154.651 336.495 149.997 368.364C148.088 381.433 147.842 386.066 148.106 404.054C148.372 422.24 148.799 427.049 151.467 441.863C161.368 496.84 193.227 547.573 239.114 581.432C268.863 603.384 304.089 617.843 339.983 622.837C354.255 624.823 357.504 625 375.2 624.755C393.396 624.502 398.063 624.104 411.923 621.618C452.767 614.295 489.94 596.236 521.273 568.495C529.769 560.972 545.137 544.798 544.382 544.171C544.289 544.093 534.332 537.45 522.255 529.409C510.179 521.367 497.531 512.928 494.149 510.656C490.767 508.383 473.682 496.975 456.182 485.305L424.363 464.086L419.791 465.293C412.159 467.307 409.488 467.668 401.53 467.763C395.465 467.836 392.94 467.673 389.108 466.962C378.523 464.997 369.288 461.092 360.842 455.008C343.068 442.206 332.536 422.1 332.249 400.422C332.157 393.438 332.553 389.674 334.061 383.21C337.935 366.604 348.573 351.435 363.164 341.709C367.041 339.124 373.99 335.687 378.444 334.15C391.187 329.751 406.73 329.261 419.239 332.863L422.071 333.679L423.803 332.506C425.425 331.407 473.702 297.281 488.877 286.507C492.668 283.814 498.195 279.89 501.157 277.788C504.119 275.685 513.863 268.794 522.81 262.477C531.757 256.159 539.075 250.852 539.072 250.684C539.064 250.093 528.109 238.86 523.576 234.794C485.502 200.642 440.254 180.966 390.315 176.843C383.467 176.278 364.715 176.058 358.346 176.467Z" fill="white"/>
<path fill-rule="evenodd" clip-rule="evenodd" d="M609.165 176.814C588.205 180.163 570.471 195.539 564.05 215.929C562.262 221.61 561.701 225.16 561.54 231.811C561.415 237.037 561.56 239.049 562.386 243.509C562.935 246.471 563.326 248.954 563.257 249.025C563.157 249.128 527.964 274.068 511.672 285.581C509.894 286.837 504.465 290.683 499.607 294.126C490.78 300.382 477.399 309.846 466.427 317.595C463.228 319.854 458.914 322.912 456.842 324.389C454.77 325.867 448.404 330.372 442.697 334.399C436.99 338.427 430.445 343.078 428.153 344.734C423.448 348.135 423.824 348.083 418.015 346.125C404.489 341.565 388.613 342.638 375.705 348.986C359.157 357.123 348.047 371.75 344.443 390.146C343.415 395.388 343.58 406.822 344.756 411.88C347.386 423.193 352.273 432.163 360.077 440.001C376.404 456.4 399.032 461.297 420.982 453.18L425.202 451.62L457.058 472.86C474.58 484.541 490.933 495.451 493.399 497.104C499.784 501.38 511.526 509.216 535.212 525.004C546.564 532.571 558.57 540.582 561.891 542.804C565.213 545.027 567.933 547.087 567.937 547.381C567.941 547.676 567.571 549.763 567.115 552.019C562.918 572.77 570.956 594.956 587.325 607.797C610 625.585 641.609 624.195 662.11 604.509C680.022 587.308 684.737 560.463 673.766 538.145C670.148 530.786 663.19 522.499 656.506 517.589C641.555 506.606 621.686 503.61 604.276 509.711C600.216 511.134 594.668 513.844 591.353 516.023L589.33 517.353L585.243 514.696C582.994 513.235 578.981 510.572 576.324 508.778C571.34 505.414 566.682 502.305 541.191 485.326C532.979 479.856 520.627 471.609 513.743 467.001C506.859 462.392 490.189 451.263 476.699 442.269C463.209 433.276 452.083 425.697 451.976 425.429C451.869 425.16 452.348 423.552 453.043 421.856C458.83 407.717 458.769 393.312 452.856 378.176C451.267 374.109 451.072 373.288 451.576 372.798C452.03 372.356 528.423 318.206 549.77 303.194C551.784 301.777 556.341 298.548 559.896 296.018C567.065 290.915 573.172 286.6 579.825 281.937L584.242 278.841L587.643 280.953C594.669 285.317 601.935 288.042 609.802 289.263C615.594 290.162 626.513 289.7 631.625 288.339C639.591 286.218 646.74 282.822 652.51 278.419C676.936 259.78 682.311 225.735 664.834 200.365C661.937 196.159 653.743 188.209 649.402 185.391C642.694 181.037 634.787 178.04 626.612 176.752C622.433 176.093 613.477 176.126 609.165 176.814Z" fill="white"/>
</g>
<defs>
<filter id="filter0_d_98_2" x="144.268" y="176.256" width="539.114" height="456.084" filterUnits="userSpaceOnUse" color-interpolation-filters="sRGB">
<feFlood flood-opacity="0" result="BackgroundImageFix"/>
<feColorMatrix in="SourceAlpha" type="matrix" values="0 0 0 0 0 0 0 0 0 0 0 0 0 0 0 0 0 0 127 0" result="hardAlpha"/>
<feOffset dy="3.75"/>
<feGaussianBlur stdDeviation="1.875"/>
<feComposite in2="hardAlpha" operator="out"/>
<feColorMatrix type="matrix" values="0 0 0 0 0 0 0 0 0 0 0 0 0 0 0 0 0 0 0.25 0"/>
<feBlend mode="normal" in2="BackgroundImageFix" result="effect1_dropShadow_98_2"/>
<feBlend mode="normal" in="SourceGraphic" in2="effect1_dropShadow_98_2" result="shape"/>
</filter>
</defs>
</svg>
